<svg width="270" height="155" viewBox="0 0 270 155" fill="none" xmlns="http://www.w3.org/2000/svg">
<g clip-path="url(#clip0_63_104)">
<path d="M200.294 89.145C198.879 82.303 196.172 76.646 192.267 71.496C184.265 60.935 171.303 54.26 153.759 54.26C126.485 54.26 109.716 72.781 104.75 92.304C100.29 78.538 88.354 69.251 75.746 65.327C85.236 58.409 90.204 48.513 90.204 37.216C90.204 26.73 85.839 17.185 78.532 10.973C67.812 1.86 53.2 0 35.195 0C21.374 0 16.16 0 0 0V151.975C9.972 151.975 20.222 151.931 30.214 151.975C39.104 152.016 47.786 151.963 55.882 151.639C81.508 150.612 99.048 137.713 104.662 118.343C106.59 126.955 110.298 133.976 115.14 139.304C125.008 150.166 139.315 154.412 153.723 154.412C171.463 154.412 184.289 149.267 193.051 141.383L180.51 126.643C174.199 131.401 166.088 134.206 156.979 134.206C139.114 134.15 131.236 122.846 130.53 111.977H200.293V151.975H226.424V0.759H200.293V89.145H200.294ZM26.851 20.532L34.112 20.528C41.124 20.528 46.662 21.282 50.65 22.83C58.524 25.885 62.267 32.146 62.267 39.967C62.276 46.58 59.746 56.972 45.835 59.813C43.508 60.288 40.156 60.551 35.42 60.551C28.732 60.551 26.851 60.551 26.851 60.551V20.532ZM56.392 129.732C53.121 130.32 49.121 130.451 45.872 130.451C36.043 130.451 26.849 130.451 26.849 130.451L26.85 80.871C26.85 80.871 36.835 80.871 43.871 80.871C49.243 80.871 55.322 81.475 58.805 82.387C70.746 85.52 77.606 94.082 77.606 105.42C77.606 117.16 71.289 127.048 56.392 129.732ZM131.011 93.082C133.314 82.012 141.497 74.044 153.557 74.044C165.63 74.044 173.661 81.183 175.742 93.082H131.011Z" fill="white"/>
<path d="M269.554 0.759003H243.868V151.974H269.554V0.759003Z" fill="white"/>
</g>
<defs>
<clipPath id="clip0_63_104">
<rect width="269.553" height="154.412" fill="white"/>
</clipPath>
</defs>
</svg>
